<svg width="16" height="17" viewBox="0 0 16 17" fill="none" xmlns="http://www.w3.org/2000/svg">
<path d="M8.25 2C6.59296 2.00182 5.0043 2.66088 3.83259 3.83259C2.66088 5.0043 2.00182 6.59296 2 8.25V13.5C2 13.7652 2.10536 14.0196 2.29289 14.2071C2.48043 14.3946 2.73478 14.5 3 14.5H8.25C9.9076 14.5 11.4973 13.8415 12.6694 12.6694C13.8415 11.4973 14.5 9.9076 14.5 8.25C14.5 6.5924 13.8415 5.00269 12.6694 3.83058C11.4973 2.65848 9.9076 2 8.25 2ZM8.25 13.5H3V8.25C3 7.21165 3.30791 6.19661 3.88478 5.33326C4.46166 4.4699 5.2816 3.79699 6.24091 3.39963C7.20022 3.00227 8.25582 2.8983 9.27422 3.10088C10.2926 3.30345 11.2281 3.80346 11.9623 4.53769C12.6965 5.27191 13.1966 6.20738 13.3991 7.22578C13.6017 8.24418 13.4977 9.29978 13.1004 10.2591C12.703 11.2184 12.0301 12.0383 11.1667 12.6152C10.3034 13.1921 9.28835 13.5 8.25 13.5Z" fill="#2A89EF"/>
</svg>
