<svg width="16" height="16" viewBox="0 0 16 16" fill="none" xmlns="http://www.w3.org/2000/svg">
<path fill-rule="evenodd" clip-rule="evenodd" d="M4 0C1.79086 0 0 1.79086 0 4V12C0 14.2091 1.79086 16 4 16H12C14.2091 16 16 14.2091 16 12V4C16 1.79086 14.2091 0 12 0H4ZM10.134 4.12031L11.8793 5.86602C11.9373 5.92405 11.9834 5.99296 12.0148 6.0688C12.0462 6.14464 12.0624 6.22592 12.0624 6.30801C12.0624 6.3901 12.0462 6.47138 12.0148 6.54722C11.9834 6.62306 11.9373 6.69196 11.8793 6.75L7.0625 11.5668C7.00467 11.6251 6.93584 11.6713 6.85999 11.7028C6.78415 11.7342 6.70281 11.7503 6.6207 11.75H4.875C4.70924 11.75 4.55027 11.6842 4.43306 11.5669C4.31585 11.4497 4.25 11.2908 4.25 11.125V9.3793C4.24974 9.29719 4.2658 9.21585 4.29725 9.14001C4.3287 9.06416 4.37491 8.99533 4.4332 8.9375L9.25 4.12031C9.30804 4.06226 9.37694 4.01621 9.45278 3.98479C9.52862 3.95337 9.6099 3.9372 9.69199 3.9372C9.77408 3.9372 9.85536 3.95337 9.9312 3.98479C10.007 4.01621 10.0759 4.06226 10.134 4.12031ZM8.7543 5.5L10.5 7.24531L11.4375 6.30781L9.6918 4.5625L8.7543 5.5Z" fill="#3381FF"/>
</svg>
