<svg width="10" height="10" viewBox="0 0 10 10" fill="none" xmlns="http://www.w3.org/2000/svg">
<path d="M9.85354 9.14625C9.9 9.19271 9.93684 9.24786 9.96199 9.30856C9.98713 9.36925 10.0001 9.43431 10.0001 9.5C10.0001 9.5657 9.98713 9.63076 9.96199 9.69145C9.93684 9.75215 9.9 9.8073 9.85354 9.85375C9.80709 9.90021 9.75194 9.93706 9.69124 9.9622C9.63054 9.98734 9.56549 10.0003 9.49979 10.0003C9.43409 10.0003 9.36904 9.98734 9.30834 9.9622C9.24765 9.93706 9.1925 9.90021 9.14604 9.85375L4.99979 5.70688L0.85354 9.85375C0.759719 9.94757 0.632472 10.0003 0.49979 10.0003C0.367108 10.0003 0.23986 9.94757 0.14604 9.85375C0.0522194 9.75993 -0.000488279 9.63269 -0.000488281 9.5C-0.000488284 9.36732 0.0522194 9.24007 0.14604 9.14625L4.29291 5L0.14604 0.853753C0.0522194 0.759933 -0.000488281 0.632685 -0.000488281 0.500003C-0.000488281 0.367321 0.0522194 0.240074 0.14604 0.146253C0.23986 0.052433 0.367108 -0.000274658 0.49979 -0.000274658C0.632472 -0.000274658 0.759719 0.052433 0.85354 0.146253L4.99979 4.29313L9.14604 0.146253C9.23986 0.052433 9.36711 -0.000274661 9.49979 -0.000274658C9.63247 -0.000274656 9.75972 0.052433 9.85354 0.146253C9.94736 0.240074 10.0001 0.367321 10.0001 0.500003C10.0001 0.632685 9.94736 0.759933 9.85354 0.853753L5.70666 5L9.85354 9.14625Z" fill="#D1D5DB"/>
</svg>
