<svg width="16" height="16" viewBox="0 0 16 16" fill="none" xmlns="http://www.w3.org/2000/svg">
<path fill-rule="evenodd" clip-rule="evenodd" d="M4 0C1.79086 0 0 1.79086 0 4V12C0 14.2091 1.79086 16 4 16H12C14.2091 16 16 14.2091 16 12V4C16 1.79086 14.2091 0 12 0H4ZM8.90617 3.94165C8.54707 3.1722 7.45293 3.1722 7.09383 3.94165L6.24458 5.76132C6.14525 5.97417 5.97417 6.14525 5.76132 6.24458L3.94165 7.09383C3.1722 7.45293 3.1722 8.54707 3.94165 8.90617L5.76132 9.75542C5.97417 9.85475 6.14525 10.0258 6.24458 10.2387L7.09383 12.0584C7.45293 12.8278 8.54707 12.8278 8.90617 12.0583L9.75542 10.2387C9.85475 10.0258 10.0258 9.85475 10.2387 9.75542L12.0584 8.90617C12.8278 8.54707 12.8278 7.45293 12.0583 7.09383L10.2387 6.24458C10.0258 6.14525 9.85475 5.97417 9.75542 5.76132L8.90617 3.94165Z" fill="#3381FF"/>
</svg>
