<svg width="18" height="19" viewBox="0 0 18 19" fill="none" xmlns="http://www.w3.org/2000/svg">
<path d="M16.4998 0.204102H1.49998C0.671564 0.204102 0 0.875665 0 1.70408V16.7039C0 17.5323 0.671564 18.2039 1.49998 18.2039H16.4998C17.3282 18.2039 17.9998 17.5323 17.9998 16.7039V1.70408C17.9998 0.875665 17.3282 0.204102 16.4998 0.204102Z" fill="#2A89EF"/>
<path fill-rule="evenodd" clip-rule="evenodd" d="M15.0452 6.99965C15.3381 7.29254 15.3381 7.7674 15.0452 8.06029L9.15517 13.9504C8.86227 14.2433 8.3874 14.2433 8.09452 13.9504L3.7044 9.56027C3.41152 9.26738 3.41152 8.79252 3.7044 8.49963L5.29538 6.90865C5.58827 6.61577 6.06313 6.61577 6.35602 6.90865L8.62483 9.17748L12.3936 5.40867C12.6865 5.11579 13.1614 5.11579 13.4543 5.40867L15.0452 6.99965Z" fill="white"/>
</svg>
