<svg width="21" height="20" viewBox="0 0 21 20" fill="none" xmlns="http://www.w3.org/2000/svg">
<g clip-path="url(#clip0_3105_1033)">
<path d="M18.3282 13.7453C17.8946 12.9984 17.2501 10.8852 17.2501 8.125C17.2501 6.4674 16.5916 4.87769 15.4195 3.70558C14.2474 2.53348 12.6577 1.875 11.0001 1.875C9.34247 1.875 7.75276 2.53348 6.58065 3.70558C5.40855 4.87769 4.75007 6.4674 4.75007 8.125C4.75007 10.8859 4.10476 12.9984 3.67116 13.7453C3.56044 13.9352 3.50174 14.1509 3.50098 14.3707C3.50023 14.5905 3.55745 14.8066 3.66687 14.9973C3.77629 15.1879 3.93404 15.3463 4.12422 15.4565C4.31439 15.5667 4.53027 15.6248 4.75007 15.625H7.93835C8.08255 16.3306 8.46603 16.9647 9.02392 17.4201C9.58182 17.8756 10.2799 18.1243 11.0001 18.1243C11.7202 18.1243 12.4183 17.8756 12.9762 17.4201C13.5341 16.9647 13.9176 16.3306 14.0618 15.625H17.2501C17.4698 15.6247 17.6856 15.5665 17.8757 15.4562C18.0657 15.346 18.2234 15.1875 18.3327 14.9969C18.442 14.8063 18.4992 14.5903 18.4984 14.3705C18.4976 14.1508 18.4389 13.9351 18.3282 13.7453ZM11.0001 16.875C10.6124 16.8749 10.2344 16.7546 9.91788 16.5308C9.60141 16.3069 9.3621 15.9905 9.23288 15.625H12.7673C12.638 15.9905 12.3987 16.3069 12.0823 16.5308C11.7658 16.7546 11.3877 16.8749 11.0001 16.875ZM4.75007 14.375C5.35163 13.3406 6.00007 10.9438 6.00007 8.125C6.00007 6.79892 6.52686 5.52715 7.46454 4.58947C8.40222 3.65178 9.67399 3.125 11.0001 3.125C12.3262 3.125 13.5979 3.65178 14.5356 4.58947C15.4733 5.52715 16.0001 6.79892 16.0001 8.125C16.0001 10.9414 16.6469 13.3383 17.2501 14.375H4.75007Z" fill="black"/>
<circle cx="16.4999" cy="3.99999" r="3.6" fill="white"/>
<circle cx="16.5" cy="4" r="2" fill="#E61E32"/>
</g>
<defs>
<clipPath id="clip0_3105_1033">
<rect width="20" height="20" fill="white" transform="translate(0.5)"/>
</clipPath>
</defs>
</svg>
