<svg width="18" height="18" viewBox="0 0 18 18" fill="none" xmlns="http://www.w3.org/2000/svg">
<path d="M16.4998 0H1.49998C0.671564 0 0 0.671564 0 1.49998V16.4998C0 17.3282 0.671564 17.9998 1.49998 17.9998H16.4998C17.3282 17.9998 17.9998 17.3282 17.9998 16.4998V1.49998C17.9998 0.671564 17.3282 0 16.4998 0Z" fill="#2A89EF"/>
<path fill-rule="evenodd" clip-rule="evenodd" d="M15.0452 6.79554C15.3381 7.08844 15.3381 7.56329 15.0452 7.85619L9.15517 13.7463C8.86227 14.0392 8.3874 14.0392 8.09452 13.7463L3.7044 9.35617C3.41152 9.06327 3.41152 8.58842 3.7044 8.29553L5.29538 6.70455C5.58827 6.41167 6.06313 6.41167 6.35602 6.70455L8.62483 8.97338L12.3936 5.20457C12.6865 4.91169 13.1614 4.91169 13.4543 5.20457L15.0452 6.79554Z" fill="white"/>
</svg>
